# xmcd
#
# Track frame offsets: 
#        150
#        18378
#        32771
#        45125
#        61493
#        76158
#        90646
#        107887
#        122075
#        134491
#        153765
#        166987
#        178509
#        189743
#        204053
#        218896
#        231147
#
# Disc length: 3189 seconds
#
# Revision: 0
# Processed by: cddbd v1.5PL3 Copyright (c) Steve Scherf et al.
# Submitted via: ExactAudioCopy v0.90b4
#
DISCID=d60c7311
DTITLE=Various Artist - Vogtlandheimat 7
DYEAR=2003
DGENRE=Folklore
TTITLE0=Nicole and die Lachtaler - Ein Herz Fürs Vogtland
TTITLE1=Christian Gebhardt - Wenn doch am Montag schon Freitag wär
TTITLE2=Eimberglerchen - Mein Wanderlied
TTITLE3=Helmut Judis % Heimattrio Theuma - Hallo Nachbarn!
TTITLE4=Sindy and Sandra - Herzklopfen kostenlos
TTITLE5=Mundharmonika Live Solist Igor Flach - Klingenthaler harmonika
TTITLE6=Schönecker Lausbuam - Das Lied vom Dengeln
TTITLE7=Alex Merten - Feuer und Eis
TTITLE8=Wach auf,mein's Herzens Schöne
TTITLE9=Bärendorfer Musikanten - Mein schönes Elstertal
TTITLE10=Nicole and die Lachtaler - Mein Schatz muss bei der Feuerwehr s
TTITLE10=ein
TTITLE11=Sebastian Wildgrube - Der fröhliche Wandersmann
TTITLE12=Selina Kriegner - Ein zahmer,gelber Kakadu
TTITLE13=Annett Friedrich - Rote Rosen für die Musik
TTITLE14=Ohrwurm-Gang - Kopf hoch!
TTITLE15=De Erdachsenmädle - Bambes gibts mit Pflaumenbrie
TTITLE16=Grünbacher Folkloristen - Der schännste Weg
EXTD=
EXTT0=
EXTT1=
EXTT2=
EXTT3=
EXTT4=
EXTT5=
EXTT6=
EXTT7=
EXTT8=
EXTT9=
EXTT10=
EXTT11=
EXTT12=
EXTT13=
EXTT14=
EXTT15=
EXTT16=
PLAYORDER=
